<svg width="59" height="41" viewBox="0 0 59 41" fill="none" xmlns="http://www.w3.org/2000/svg">
<path d="M25.9024 5.5V11L21.5024 8.8L17.1024 6.7L8.80237 11.2C2.00237 14.9 0.302369 16.2 0.102369 18.3C-0.197631 20.4 0.102369 20.8 1.80237 20.3C3.80237 19.8 3.90237 20.2 3.90237 27.9V36H16.9024H29.9024V38.5C29.9024 39.9 30.4024 41 30.9024 41C31.5024 41 31.9024 39.9 31.9024 38.5V36H45.4024C53.7024 36 58.9024 35.6 58.9024 35C58.9024 34.4 53.5024 33.9 45.2024 33.8L31.4024 33.6L42.9024 33L54.4024 32.4L43.4024 32L32.4024 31.5L32.1024 25.7C31.9024 22.6 32.1024 20 32.4024 20C32.8024 20 36.9024 22.1 41.5024 24.6C46.1024 27.1 50.5024 29 51.1024 28.8C51.8024 28.5 47.6024 25.8 41.9024 22.7C36.1024 19.6 31.8024 17 32.3024 17C32.8024 17 37.0024 19 41.7024 21.6C46.3024 24.1 50.6024 25.9 51.2024 25.7C52.2024 25.4 38.2024 17.2 33.7024 15.5C32.5024 15 31.9024 13.7 31.9024 11.4C31.9024 9.5 31.5024 8 30.9024 8C30.4024 8 29.9024 9.1 29.9024 10.5C29.9024 11.9 29.5024 13 28.9024 13C28.3024 13 27.9024 10.2 27.9024 6.5C27.9024 2.8 27.5024 -6.10948e-07 26.9024 -6.10948e-07C26.4024 -6.10948e-07 25.9024 2.5 25.9024 5.5ZM25.9024 13.5C25.9024 13.8 24.1024 13.1 21.9024 12C19.7024 10.9 17.9024 9.7 17.9024 9.5C17.9024 9.2 19.7024 9.9 21.9024 11C24.1024 12.1 25.9024 13.3 25.9024 13.5ZM22.0024 14.2L25.9024 16.4V23.7V31H22.9024C20.2024 31 19.9024 30.7 19.9024 28C19.9024 25.5 19.5024 25 17.5024 25C15.4024 25 15.0024 25.6 14.7024 28.2C14.4024 31.1 14.1024 31.5 11.4024 31.5H8.40237V24V16.6L12.4024 14.3C17.3024 11.5 17.3024 11.5 22.0024 14.2ZM29.9024 25C29.9024 29 29.5024 32 28.9024 32C28.3024 32 27.9024 29 27.9024 25C27.9024 21 28.3024 18 28.9024 18C29.5024 18 29.9024 21 29.9024 25ZM24.2024 33.7C23.5024 33.9 22.3024 33.9 21.7024 33.7C21.0024 33.4 21.5024 33.2 22.9024 33.2C24.3024 33.2 24.8024 33.4 24.2024 33.7Z" fill="#BF4545"/>
</svg>
